<?xml version="1.0" ?><svg viewBox="0 0 22.831 22.86" xmlns="http://www.w3.org/2000/svg"><g data-name="Layer 2" id="Layer_2"><g data-name="Layer 1" id="Layer_1-2"><path d="M4.516,20.092H2.21A2.216,2.216,0,0,1,.376,16.665l.788-1.184L.59,15.1l1.856-.918-.133,2.066-.573-.382L.952,17.048A1.52,1.52,0,0,0,2.21,19.4H4.516a.346.346,0,1,1,0,.692ZM22.494,22.86H4.962a.346.346,0,0,1,0-.692h.673l.826-2.477V10.98a.347.347,0,0,1,.693,0v8.767a.366.366,0,0,1-.018.109l-.771,2.312H21.091L20.4,20.092H16.035a.347.347,0,0,1,0-.693H20.3V9.019H10.96a.346.346,0,0,1,0-.692H20.4l.692-2.076H6.365L7.058,8.33a2.188,2.188,0,0,1,1.89.979L10.8,12.091l.574-.383.132,2.066-1.855-.917.573-.382L8.372,9.693a1.512,1.512,0,0,0-2.517,0L3.833,12.726a.346.346,0,0,1-.576-.384L5.279,9.309a2.194,2.194,0,0,1,1.092-.851L5.635,6.251H4.962a.346.346,0,0,1,0-.692h7.956C9.406,4.281,4.9,1.863,7.016.309c2.361-1.451,13.4,2.532,13.918,5.25h1.56a.346.346,0,0,1,0,.692h-.673l-.827,2.478V19.691l.827,2.477h.673A.346.346,0,0,1,22.494,22.86ZM20.2,5.559c-.473-.9-2.567-2.46-6.106-3.693C10.549.725,8.028.3,7.16,1.105c-.438.878,4.812,3.75,8.072,4.454ZM8.684,19.746l1.792,1.035v-.689h1.541a2.2,2.2,0,0,0,1.835-3.427L12.9,15.23a.346.346,0,0,0-.576.383c.484.825,1.674,1.954,1.032,2.988-.48,1.06-1.955.764-2.875.8v-.69Z" data-name="metal recycling" id="metal_recycling"/></g></g></svg>